<svg width="34" height="34" viewBox="0 0 34 34" fill="none" xmlns="http://www.w3.org/2000/svg">
<rect x="0.5" y="0.5" width="33" height="33" rx="3.5" stroke="white" stroke-opacity="0.25"/>
<path d="M21.5 7.25H12.5C11.1081 7.25149 9.77358 7.80509 8.78933 8.78933C7.80509 9.77358 7.25149 11.1081 7.25 12.5V21.5C7.25149 22.8919 7.80509 24.2264 8.78933 25.2107C9.77358 26.1949 11.1081 26.7485 12.5 26.75H21.5C22.8919 26.7485 24.2264 26.1949 25.2107 25.2107C26.1949 24.2264 26.7485 22.8919 26.75 21.5V12.5C26.7485 11.1081 26.1949 9.77358 25.2107 8.78933C24.2264 7.80509 22.8919 7.25149 21.5 7.25ZM17 21.5C16.11 21.5 15.24 21.2361 14.4999 20.7416C13.7599 20.2471 13.1831 19.5443 12.8425 18.7221C12.5019 17.8998 12.4128 16.995 12.5865 16.1221C12.7601 15.2492 13.1887 14.4474 13.818 13.818C14.4474 13.1887 15.2492 12.7601 16.1221 12.5865C16.995 12.4128 17.8998 12.5019 18.7221 12.8425C19.5443 13.1831 20.2471 13.7599 20.7416 14.4999C21.2361 15.24 21.5 16.11 21.5 17C21.4988 18.1931 21.0243 19.337 20.1806 20.1806C19.337 21.0243 18.1931 21.4988 17 21.5ZM22.625 12.5C22.4025 12.5 22.185 12.434 22 12.3104C21.815 12.1868 21.6708 12.0111 21.5856 11.8055C21.5005 11.6 21.4782 11.3738 21.5216 11.1555C21.565 10.9373 21.6722 10.7368 21.8295 10.5795C21.9868 10.4222 22.1873 10.315 22.4055 10.2716C22.6238 10.2282 22.85 10.2505 23.0555 10.3356C23.2611 10.4208 23.4368 10.565 23.5604 10.75C23.684 10.935 23.75 11.1525 23.75 11.375C23.75 11.6734 23.6315 11.9595 23.4205 12.1705C23.2095 12.3815 22.9234 12.5 22.625 12.5ZM20 17C20 17.5933 19.8241 18.1734 19.4944 18.6667C19.1648 19.1601 18.6962 19.5446 18.1481 19.7716C17.5999 19.9987 16.9967 20.0581 16.4147 19.9424C15.8328 19.8266 15.2982 19.5409 14.8787 19.1213C14.4591 18.7018 14.1734 18.1672 14.0576 17.5853C13.9419 17.0033 14.0013 16.4001 14.2284 15.8519C14.4554 15.3038 14.8399 14.8352 15.3333 14.5056C15.8266 14.1759 16.4067 14 17 14C17.7956 14 18.5587 14.3161 19.1213 14.8787C19.6839 15.4413 20 16.2044 20 17Z" fill="white" fill-opacity="0.7"/>
</svg>
