<svg width="34" height="34" viewBox="0 0 34 34" fill="none" xmlns="http://www.w3.org/2000/svg">
<rect x="0.5" y="0.5" width="33" height="33" rx="3.5" stroke="white" stroke-opacity="0.25"/>
<path d="M25.25 7.25H8.75C8.35218 7.25 7.97064 7.40804 7.68934 7.68934C7.40804 7.97064 7.25 8.35218 7.25 8.75V25.25C7.25 25.6478 7.40804 26.0294 7.68934 26.3107C7.97064 26.592 8.35218 26.75 8.75 26.75H25.25C25.6478 26.75 26.0294 26.592 26.3107 26.3107C26.592 26.0294 26.75 25.6478 26.75 25.25V8.75C26.75 8.35218 26.592 7.97064 26.3107 7.68934C26.0294 7.40804 25.6478 7.25 25.25 7.25ZM14 21.5C14 21.6989 13.921 21.8897 13.7803 22.0303C13.6397 22.171 13.4489 22.25 13.25 22.25C13.0511 22.25 12.8603 22.171 12.7197 22.0303C12.579 21.8897 12.5 21.6989 12.5 21.5V15.5C12.5 15.3011 12.579 15.1103 12.7197 14.9697C12.8603 14.829 13.0511 14.75 13.25 14.75C13.4489 14.75 13.6397 14.829 13.7803 14.9697C13.921 15.1103 14 15.3011 14 15.5V21.5ZM13.25 14C13.0275 14 12.81 13.934 12.625 13.8104C12.44 13.6868 12.2958 13.5111 12.2106 13.3055C12.1255 13.1 12.1032 12.8738 12.1466 12.6555C12.19 12.4373 12.2972 12.2368 12.4545 12.0795C12.6118 11.9222 12.8123 11.815 13.0305 11.7716C13.2488 11.7282 13.475 11.7505 13.6805 11.8356C13.8861 11.9208 14.0618 12.065 14.1854 12.25C14.309 12.435 14.375 12.6525 14.375 12.875C14.375 13.1734 14.2565 13.4595 14.0455 13.6705C13.8345 13.8815 13.5484 14 13.25 14ZM22.25 21.5C22.25 21.6989 22.171 21.8897 22.0303 22.0303C21.8897 22.171 21.6989 22.25 21.5 22.25C21.3011 22.25 21.1103 22.171 20.9697 22.0303C20.829 21.8897 20.75 21.6989 20.75 21.5V18.125C20.75 17.6277 20.5525 17.1508 20.2008 16.7992C19.8492 16.4475 19.3723 16.25 18.875 16.25C18.3777 16.25 17.9008 16.4475 17.5492 16.7992C17.1975 17.1508 17 17.6277 17 18.125V21.5C17 21.6989 16.921 21.8897 16.7803 22.0303C16.6397 22.171 16.4489 22.25 16.25 22.25C16.0511 22.25 15.8603 22.171 15.7197 22.0303C15.579 21.8897 15.5 21.6989 15.5 21.5V15.5C15.5009 15.3163 15.5693 15.1393 15.692 15.0026C15.8148 14.866 15.9834 14.7791 16.166 14.7585C16.3485 14.7379 16.5323 14.7851 16.6824 14.891C16.8325 14.9969 16.9385 15.1542 16.9803 15.3331C17.4877 14.9889 18.0792 14.7895 18.6914 14.7561C19.3036 14.7228 19.9133 14.8568 20.455 15.1438C20.9968 15.4308 21.4501 15.86 21.7664 16.3852C22.0826 16.9105 22.2498 17.5119 22.25 18.125V21.5Z" fill="white" fill-opacity="0.7"/>
</svg>
