<svg width="178" height="102" viewBox="0 0 178 102" fill="none" xmlns="http://www.w3.org/2000/svg">
    <g style="mix-blend-mode:hard-light" filter="url(#filter0_f_40_2)">
        <ellipse cx="71.4" cy="51" rx="53.4" ry="33" fill="#FF3780" fill-opacity="0.2"/>
    </g>
    <g style="mix-blend-mode:hard-light" filter="url(#filter1_f_40_2)">
        <mask id="path-2-inside-1_40_2" fill="white">
            <path d="M38.05 74.325V68.725C34 67.95 30.425 65.975 27.375 62.85L33.05 56.825C35.875 59.425 38.7 60.775 41.775 60.775C44.725 60.775 46 59.65 46 58.075C46 56.325 44.475 55.325 39.925 53.975C32.7 51.825 29.725 48.65 29.725 43.175C29.725 38.65 32.125 34.325 38.05 33.05V27.05H46.125V33.125C49.525 33.85 52.225 35.45 54.625 37.625L49.625 43.85C48 42.35 45.025 40.875 42.125 40.875C39.875 40.875 38.725 41.875 38.725 42.9C38.725 44.325 39.8 45.225 44.375 46.775C52.225 49.45 55.125 52.525 55.125 57.9C55.125 63.4 51.7 67.375 46.125 68.65V74.325H38.05ZM71.3817 32.625C78.4567 32.625 84.1817 38.425 84.1817 45.45C84.1817 48.575 83.0317 51.625 81.5817 54.025L72.8817 68.5H62.9567L70.0317 57.2C69.6567 57.25 69.2817 57.275 68.9067 57.275C63.4817 57.275 58.6317 52.625 58.6317 45.45C58.6317 38.425 64.3317 32.625 71.3817 32.625ZM67.0067 45.325C67.0067 47.925 68.9317 50 71.3817 50C73.8567 50 75.7817 47.925 75.7817 45.325C75.7817 42.825 73.8567 40.75 71.3817 40.75C68.9317 40.75 67.0067 42.825 67.0067 45.325ZM100.483 32.625C107.558 32.625 113.283 38.425 113.283 45.45C113.283 48.575 112.133 51.625 110.683 54.025L101.983 68.5H92.0582L99.1332 57.2C98.7582 57.25 98.3832 57.275 98.0082 57.275C92.5832 57.275 87.7332 52.625 87.7332 45.45C87.7332 38.425 93.4332 32.625 100.483 32.625ZM96.1082 45.325C96.1082 47.925 98.0332 50 100.483 50C102.958 50 104.883 47.925 104.883 45.325C104.883 42.825 102.958 40.75 100.483 40.75C98.0332 40.75 96.1082 42.825 96.1082 45.325Z"/>
        </mask>
        <path d="M38.05 74.325H36.1V76.275H38.05V74.325ZM38.05 68.725H40V67.1128L38.4165 66.8098L38.05 68.725ZM27.375 62.85L25.9556 61.513L24.6736 62.874L25.9795 64.212L27.375 62.85ZM33.05 56.825L34.3706 55.3902L32.9522 54.0848L31.6306 55.488L33.05 56.825ZM39.925 53.975L39.3689 55.844L39.3704 55.8444L39.925 53.975ZM38.05 33.05L38.4603 34.9564L40 34.625V33.05H38.05ZM38.05 27.05V25.1H36.1V27.05H38.05ZM46.125 27.05H48.075V25.1H46.125V27.05ZM46.125 33.125H44.175V34.703L45.7184 35.0321L46.125 33.125ZM54.625 37.625L56.1453 38.8461L57.2958 37.4138L55.9345 36.1801L54.625 37.625ZM49.625 43.85L48.3024 45.2829L49.8373 46.6997L51.1453 45.0711L49.625 43.85ZM44.375 46.775L45.004 44.9292L45.0007 44.9281L44.375 46.775ZM46.125 68.65L45.6903 66.7491L44.175 67.0956V68.65H46.125ZM46.125 74.325V76.275H48.075V74.325H46.125ZM40 74.325V68.725H36.1V74.325H40ZM38.4165 66.8098C34.7849 66.1148 31.5619 64.348 28.7705 61.488L25.9795 64.212C29.2882 67.602 33.2152 69.7852 37.6835 70.6402L38.4165 66.8098ZM28.7945 64.187L34.4695 58.162L31.6306 55.488L25.9556 61.513L28.7945 64.187ZM31.7295 58.2598C34.786 61.0729 38.0605 62.725 41.775 62.725V58.825C39.3396 58.825 36.964 57.7771 34.3706 55.3902L31.7295 58.2598ZM41.775 62.725C43.4525 62.725 44.9625 62.4126 46.1071 61.6165C47.3489 60.7529 47.95 59.4633 47.95 58.075H44.05C44.05 58.2617 44.0136 58.3221 43.8804 58.4147C43.65 58.5749 43.0475 58.825 41.775 58.825V62.725ZM47.95 58.075C47.95 57.3343 47.783 56.5911 47.3679 55.8912C46.9648 55.2116 46.3941 54.6845 45.7554 54.2558C44.5344 53.4365 42.7569 52.7812 40.4797 52.1056L39.3704 55.8444C41.6431 56.5188 42.9032 57.0385 43.5822 57.4942C43.8934 57.703 43.9884 57.8384 44.0134 57.8806C44.0265 57.9026 44.05 57.9407 44.05 58.075H47.95ZM40.4812 52.106C37.0097 51.073 34.84 49.869 33.5345 48.4842C32.295 47.1694 31.675 45.5209 31.675 43.175H27.775C27.775 46.3041 28.6426 48.9806 30.6968 51.1595C32.685 53.2685 35.6153 54.727 39.3689 55.844L40.4812 52.106ZM31.675 43.175C31.675 41.2494 32.185 39.4659 33.2315 38.0559C34.2616 36.668 35.9117 35.5048 38.4603 34.9564L37.6398 31.1436C34.2633 31.8702 31.7509 33.507 30.0998 35.7316C28.4651 37.9341 27.775 40.5756 27.775 43.175H31.675ZM40 33.05V27.05H36.1V33.05H40ZM38.05 29H46.125V25.1H38.05V29ZM44.175 27.05V33.125H48.075V27.05H44.175ZM45.7184 35.0321C48.7178 35.6717 51.1171 37.0775 53.3156 39.0699L55.9345 36.1801C53.333 33.8225 50.3322 32.0283 46.5317 31.2179L45.7184 35.0321ZM53.1047 36.4039L48.1047 42.6289L51.1453 45.0711L56.1453 38.8461L53.1047 36.4039ZM50.9477 42.4171C49.0242 40.6416 45.5932 38.925 42.125 38.925V42.825C44.4568 42.825 46.9759 44.0584 48.3024 45.2829L50.9477 42.4171ZM42.125 38.925C40.7322 38.925 39.4751 39.2321 38.5017 39.8793C37.5154 40.535 36.775 41.5964 36.775 42.9H40.675C40.675 43.1785 40.5097 43.2275 40.6609 43.127C40.8249 43.0179 41.2678 42.825 42.125 42.825V38.925ZM36.775 42.9C36.775 43.5191 36.8964 44.1837 37.2613 44.8382C37.6151 45.4728 38.1264 45.9695 38.7055 46.3806C39.8035 47.1602 41.4648 47.8479 43.7493 48.6219L45.0007 44.9281C42.7103 44.1521 41.5465 43.6148 40.9633 43.2007C40.7017 43.0149 40.6584 42.9225 40.6677 42.9391C40.688 42.9757 40.675 42.9934 40.675 42.9H36.775ZM43.7461 48.6208C47.5743 49.9253 49.9066 51.2393 51.288 52.6764C52.5812 54.0217 53.175 55.616 53.175 57.9H57.075C57.075 54.809 56.2189 52.1783 54.0996 49.9736C52.0685 47.8607 49.0257 46.2997 45.004 44.9292L43.7461 48.6208ZM53.175 57.9C53.175 60.2283 52.4576 62.1414 51.2253 63.6018C49.9856 65.071 48.1315 66.1908 45.6903 66.7491L46.5598 70.5509C49.6936 69.8342 52.3394 68.329 54.206 66.1169C56.0799 63.8961 57.075 61.0717 57.075 57.9H53.175ZM44.175 68.65V74.325H48.075V68.65H44.175ZM46.125 72.375H38.05V76.275H46.125V72.375ZM81.5817 54.025L79.9126 53.0166L79.9103 53.0205L81.5817 54.025ZM72.8817 68.5V70.45H73.9848L74.553 69.5045L72.8817 68.5ZM62.9567 68.5L61.3039 67.4652L59.4351 70.45H62.9567V68.5ZM70.0317 57.2L71.6844 58.2348L73.8858 54.7189L69.7739 55.2671L70.0317 57.2ZM71.3817 34.575C77.3698 34.575 82.2317 39.492 82.2317 45.45H86.1317C86.1317 37.358 79.5435 30.675 71.3817 30.675V34.575ZM82.2317 45.45C82.2317 48.1187 81.2391 50.821 79.9126 53.0166L83.2507 55.0334C84.8242 52.429 86.1317 49.0313 86.1317 45.45H82.2317ZM79.9103 53.0205L71.2103 67.4955L74.553 69.5045L83.253 55.0295L79.9103 53.0205ZM72.8817 66.55H62.9567V70.45H72.8817V66.55ZM64.6094 69.5348L71.6844 58.2348L68.3789 56.1652L61.3039 67.4652L64.6094 69.5348ZM69.7739 55.2671C69.4836 55.3058 69.1947 55.325 68.9067 55.325V59.225C69.3686 59.225 69.8297 59.1942 70.2894 59.1329L69.7739 55.2671ZM68.9067 55.325C64.7122 55.325 60.5817 51.7083 60.5817 45.45H56.6817C56.6817 53.5417 62.2511 59.225 68.9067 59.225V55.325ZM60.5817 45.45C60.5817 39.4846 65.4259 34.575 71.3817 34.575V30.675C63.2374 30.675 56.6817 37.3654 56.6817 45.45H60.5817ZM65.0567 45.325C65.0567 48.8731 67.7302 51.95 71.3817 51.95V48.05C70.1332 48.05 68.9567 46.9769 68.9567 45.325H65.0567ZM71.3817 51.95C75.0511 51.95 77.7317 48.8806 77.7317 45.325H73.8317C73.8317 46.9694 72.6622 48.05 71.3817 48.05V51.95ZM77.7317 45.325C77.7317 41.8413 75.0245 38.8 71.3817 38.8V42.7C72.6888 42.7 73.8317 43.8087 73.8317 45.325H77.7317ZM71.3817 38.8C67.7567 38.8 65.0567 41.8487 65.0567 45.325H68.9567C68.9567 43.8013 70.1066 42.7 71.3817 42.7V38.8ZM110.683 54.025L109.014 53.0166L109.012 53.0205L110.683 54.025ZM101.983 68.5V70.45H103.086L103.655 69.5045L101.983 68.5ZM92.0582 68.5L90.4055 67.4652L88.5366 70.45H92.0582V68.5ZM99.1332 57.2L100.786 58.2348L102.987 54.7189L98.8755 55.2671L99.1332 57.2ZM100.483 34.575C106.471 34.575 111.333 39.492 111.333 45.45H115.233C115.233 37.358 108.645 30.675 100.483 30.675V34.575ZM111.333 45.45C111.333 48.1187 110.341 50.821 109.014 53.0166L112.352 55.0334C113.926 52.429 115.233 49.0313 115.233 45.45H111.333ZM109.012 53.0205L100.312 67.4955L103.655 69.5045L112.355 55.0295L109.012 53.0205ZM101.983 66.55H92.0582V70.45H101.983V66.55ZM93.711 69.5348L100.786 58.2348L97.4805 56.1652L90.4055 67.4652L93.711 69.5348ZM98.8755 55.2671C98.5852 55.3058 98.2963 55.325 98.0082 55.325V59.225C98.4702 59.225 98.9313 59.1942 99.3909 59.1329L98.8755 55.2671ZM98.0082 55.325C93.8138 55.325 89.6832 51.7083 89.6832 45.45H85.7832C85.7832 53.5417 91.3527 59.225 98.0082 59.225V55.325ZM89.6832 45.45C89.6832 39.4846 94.5275 34.575 100.483 34.575V30.675C92.339 30.675 85.7832 37.3654 85.7832 45.45H89.6832ZM94.1582 45.325C94.1582 48.8731 96.8317 51.95 100.483 51.95V48.05C99.2347 48.05 98.0582 46.9769 98.0582 45.325H94.1582ZM100.483 51.95C104.153 51.95 106.833 48.8806 106.833 45.325H102.933C102.933 46.9694 101.764 48.05 100.483 48.05V51.95ZM106.833 45.325C106.833 41.8413 104.126 38.8 100.483 38.8V42.7C101.79 42.7 102.933 43.8087 102.933 45.325H106.833ZM100.483 38.8C96.8583 38.8 94.1582 41.8487 94.1582 45.325H98.0582C98.0582 43.8013 99.2082 42.7 100.483 42.7V38.8Z" fill="#F32E7C" mask="url(#path-2-inside-1_40_2)"/>
    </g>
    <g style="mix-blend-mode:hard-light" filter="url(#filter2_f_40_2)">
        <mask id="path-4-inside-2_40_2" fill="white">
            <path d="M38.05 74.325V68.725C34 67.95 30.425 65.975 27.375 62.85L33.05 56.825C35.875 59.425 38.7 60.775 41.775 60.775C44.725 60.775 46 59.65 46 58.075C46 56.325 44.475 55.325 39.925 53.975C32.7 51.825 29.725 48.65 29.725 43.175C29.725 38.65 32.125 34.325 38.05 33.05V27.05H46.125V33.125C49.525 33.85 52.225 35.45 54.625 37.625L49.625 43.85C48 42.35 45.025 40.875 42.125 40.875C39.875 40.875 38.725 41.875 38.725 42.9C38.725 44.325 39.8 45.225 44.375 46.775C52.225 49.45 55.125 52.525 55.125 57.9C55.125 63.4 51.7 67.375 46.125 68.65V74.325H38.05ZM71.3817 32.625C78.4567 32.625 84.1817 38.425 84.1817 45.45C84.1817 48.575 83.0317 51.625 81.5817 54.025L72.8817 68.5H62.9567L70.0317 57.2C69.6567 57.25 69.2817 57.275 68.9067 57.275C63.4817 57.275 58.6317 52.625 58.6317 45.45C58.6317 38.425 64.3317 32.625 71.3817 32.625ZM67.0067 45.325C67.0067 47.925 68.9317 50 71.3817 50C73.8567 50 75.7817 47.925 75.7817 45.325C75.7817 42.825 73.8567 40.75 71.3817 40.75C68.9317 40.75 67.0067 42.825 67.0067 45.325ZM100.483 32.625C107.558 32.625 113.283 38.425 113.283 45.45C113.283 48.575 112.133 51.625 110.683 54.025L101.983 68.5H92.0582L99.1332 57.2C98.7582 57.25 98.3832 57.275 98.0082 57.275C92.5832 57.275 87.7332 52.625 87.7332 45.45C87.7332 38.425 93.4332 32.625 100.483 32.625ZM96.1082 45.325C96.1082 47.925 98.0332 50 100.483 50C102.958 50 104.883 47.925 104.883 45.325C104.883 42.825 102.958 40.75 100.483 40.75C98.0332 40.75 96.1082 42.825 96.1082 45.325Z"/>
        </mask>
        <path d="M38.05 74.325H35.5V76.875H38.05V74.325ZM38.05 68.725H40.6V66.6167L38.5293 66.2204L38.05 68.725ZM27.375 62.85L25.5188 61.1016L23.8424 62.8814L25.5501 64.6311L27.375 62.85ZM33.05 56.825L34.7769 54.9487L32.9221 53.2417L31.1938 55.0766L33.05 56.825ZM39.925 53.975L39.1977 56.4191L39.1997 56.4197L39.925 53.975ZM38.05 33.05L38.5865 35.5429L40.6 35.1096V33.05H38.05ZM38.05 27.05V24.5H35.5V27.05H38.05ZM46.125 27.05H48.675V24.5H46.125V27.05ZM46.125 33.125H43.575V35.1886L45.5932 35.6189L46.125 33.125ZM54.625 37.625L56.6131 39.2219L58.1176 37.3488L56.3374 35.7355L54.625 37.625ZM49.625 43.85L47.8954 45.7237L49.9026 47.5765L51.6131 45.4469L49.625 43.85ZM44.375 46.775L45.1975 44.3613L45.1933 44.3598L44.375 46.775ZM46.125 68.65L45.5565 66.1642L43.575 66.6173V68.65H46.125ZM46.125 74.325V76.875H48.675V74.325H46.125ZM40.6 74.325V68.725H35.5V74.325H40.6ZM38.5293 66.2204C35.0264 65.5501 31.9117 63.8474 29.1999 61.0689L25.5501 64.6311C28.9384 68.1026 32.9737 70.3499 37.5708 71.2296L38.5293 66.2204ZM29.2313 64.5984L34.9063 58.5734L31.1938 55.0766L25.5188 61.1016L29.2313 64.5984ZM31.3232 58.7013C34.4509 61.5799 37.8637 63.325 41.775 63.325V58.225C39.5363 58.225 37.2991 57.2701 34.7769 54.9487L31.3232 58.7013ZM41.775 63.325C43.5149 63.325 45.1644 63.003 46.4497 62.1091C47.862 61.1269 48.55 59.6481 48.55 58.075H43.45C43.45 58.1196 43.4428 58.0823 43.4799 58.009C43.5193 57.9313 43.5616 57.9056 43.5378 57.9221C43.4481 57.9845 42.9852 58.225 41.775 58.225V63.325ZM48.55 58.075C48.55 57.241 48.3609 56.3894 47.8839 55.5852C47.4227 54.8075 46.7789 54.2201 46.0897 53.7576C44.7853 52.8823 42.9283 52.2062 40.6504 51.5303L39.1997 56.4197C41.4718 57.0938 42.6522 57.5927 43.2479 57.9924C43.5087 58.1674 43.5304 58.2425 43.4974 58.1867C43.4485 58.1044 43.45 58.034 43.45 58.075H48.55ZM40.6523 51.5309C37.2242 50.5108 35.1715 49.346 33.9711 48.0726C32.8569 46.8907 32.275 45.4004 32.275 43.175H27.175C27.175 46.4246 28.0807 49.2593 30.2602 51.5711C32.3535 53.7915 35.4008 55.2892 39.1977 56.4191L40.6523 51.5309ZM32.275 43.175C32.275 41.353 32.7573 39.7016 33.7133 38.4135C34.6479 37.1543 36.1653 36.0639 38.5865 35.5429L37.5136 30.5571C34.0097 31.3111 31.3647 33.0207 29.618 35.374C27.8928 37.6984 27.175 40.472 27.175 43.175H32.275ZM40.6 33.05V27.05H35.5V33.05H40.6ZM38.05 29.6H46.125V24.5H38.05V29.6ZM43.575 27.05V33.125H48.675V27.05H43.575ZM45.5932 35.6189C48.4695 36.2322 50.7762 37.5783 52.9127 39.5145L56.3374 35.7355C53.6739 33.3217 50.5806 31.4677 46.6568 30.6311L45.5932 35.6189ZM52.6369 36.0281L47.6369 42.2531L51.6131 45.4469L56.6131 39.2219L52.6369 36.0281ZM51.3546 41.9762C49.3393 40.1159 45.768 38.325 42.125 38.325V43.425C44.282 43.425 46.6608 44.5841 47.8954 45.7237L51.3546 41.9762ZM42.125 38.325C40.6498 38.325 39.2674 38.6496 38.1695 39.3796C37.0547 40.1207 36.175 41.353 36.175 42.9H41.275C41.275 43.1334 41.2067 43.3296 41.1255 43.4647C41.048 43.5938 40.9789 43.636 40.9931 43.6266C41.0326 43.6004 41.3502 43.425 42.125 43.425V38.325ZM36.175 42.9C36.175 43.5999 36.313 44.3695 36.7372 45.1304C37.1469 45.8652 37.7302 46.424 38.3581 46.8698C39.5353 47.7057 41.2732 48.4165 43.5568 49.1902L45.1933 44.3598C42.9019 43.5835 41.8147 43.0693 41.3107 42.7114C41.0979 42.5604 41.1266 42.5301 41.1917 42.6469C41.2714 42.7898 41.275 42.9126 41.275 42.9H36.175ZM43.5525 49.1887C47.351 50.4831 49.574 51.7591 50.8554 53.0922C52.0216 54.3053 52.575 55.7401 52.575 57.9H57.675C57.675 54.6849 56.7785 51.8947 54.5321 49.5578C52.4011 47.3409 49.249 45.7419 45.1975 44.3613L43.5525 49.1887ZM52.575 57.9C52.575 60.0986 51.9003 61.8715 50.7668 63.2149C49.6235 64.5698 47.8912 65.6302 45.5565 66.1642L46.6935 71.1358C49.9339 70.3948 52.7015 68.8302 54.6645 66.5039C56.6372 64.166 57.675 61.2014 57.675 57.9H52.575ZM43.575 68.65V74.325H48.675V68.65H43.575ZM46.125 71.775H38.05V76.875H46.125V71.775ZM81.5817 54.025L79.3991 52.7063L79.3961 52.7114L81.5817 54.025ZM72.8817 68.5V71.05H74.3242L75.0673 69.8136L72.8817 68.5ZM62.9567 68.5L60.7953 67.1468L58.3515 71.05H62.9567V68.5ZM70.0317 57.2L72.193 58.5532L75.0717 53.9554L69.6946 54.6724L70.0317 57.2ZM71.3817 35.175C77.0354 35.175 81.6317 39.8204 81.6317 45.45H86.7317C86.7317 37.0296 79.8779 30.075 71.3817 30.075V35.175ZM81.6317 45.45C81.6317 47.9783 80.6876 50.5737 79.3991 52.7064L83.7643 55.3436C85.3758 52.6763 86.7317 49.1717 86.7317 45.45H81.6317ZM79.3961 52.7114L70.6961 67.1864L75.0673 69.8136L83.7673 55.3386L79.3961 52.7114ZM72.8817 65.95H62.9567V71.05H72.8817V65.95ZM65.118 69.8532L72.193 58.5532L67.8703 55.8468L60.7953 67.1468L65.118 69.8532ZM69.6946 54.6724C69.4304 54.7076 69.168 54.725 68.9067 54.725V59.825C69.3954 59.825 69.883 59.7924 70.3687 59.7276L69.6946 54.6724ZM68.9067 54.725C65.0908 54.725 61.1817 51.4263 61.1817 45.45H56.0817C56.0817 53.8237 61.8725 59.825 68.9067 59.825V54.725ZM61.1817 45.45C61.1817 39.8106 65.7626 35.175 71.3817 35.175V30.075C62.9007 30.075 56.0817 37.0394 56.0817 45.45H61.1817ZM64.4567 45.325C64.4567 49.1648 67.3605 52.55 71.3817 52.55V47.45C70.5028 47.45 69.5567 46.6852 69.5567 45.325H64.4567ZM71.3817 52.55C75.4187 52.55 78.3317 49.1746 78.3317 45.325H73.2317C73.2317 46.6754 72.2947 47.45 71.3817 47.45V52.55ZM78.3317 45.325C78.3317 41.5386 75.3839 38.2 71.3817 38.2V43.3C72.3294 43.3 73.2317 44.1114 73.2317 45.325H78.3317ZM71.3817 38.2C67.3952 38.2 64.4567 41.5483 64.4567 45.325H69.5567C69.5567 44.1017 70.4681 43.3 71.3817 43.3V38.2ZM110.683 54.025L108.501 52.7063L108.498 52.7114L110.683 54.025ZM101.983 68.5V71.05H103.426L104.169 69.8136L101.983 68.5ZM92.0582 68.5L89.8969 67.1468L87.4531 71.05H92.0582V68.5ZM99.1332 57.2L101.295 58.5532L104.173 53.9554L98.7962 54.6724L99.1332 57.2ZM100.483 35.175C106.137 35.175 110.733 39.8204 110.733 45.45H115.833C115.833 37.0296 108.979 30.075 100.483 30.075V35.175ZM110.733 45.45C110.733 47.9783 109.789 50.5737 108.501 52.7064L112.866 55.3436C114.477 52.6763 115.833 49.1717 115.833 45.45H110.733ZM108.498 52.7114L99.7976 67.1864L104.169 69.8136L112.869 55.3386L108.498 52.7114ZM101.983 65.95H92.0582V71.05H101.983V65.95ZM94.2195 69.8532L101.295 58.5532L96.9719 55.8468L89.8969 67.1468L94.2195 69.8532ZM98.7962 54.6724C98.5319 54.7076 98.2695 54.725 98.0082 54.725V59.825C98.4969 59.825 98.9845 59.7924 99.4702 59.7276L98.7962 54.6724ZM98.0082 54.725C94.1924 54.725 90.2832 51.4263 90.2832 45.45H85.1832C85.1832 53.8237 90.9741 59.825 98.0082 59.825V54.725ZM90.2832 45.45C90.2832 39.8106 94.8642 35.175 100.483 35.175V30.075C92.0023 30.075 85.1832 37.0394 85.1832 45.45H90.2832ZM93.5582 45.325C93.5582 49.1648 96.4621 52.55 100.483 52.55V47.45C99.6044 47.45 98.6582 46.6852 98.6582 45.325H93.5582ZM100.483 52.55C104.52 52.55 107.433 49.1746 107.433 45.325H102.333C102.333 46.6754 101.396 47.45 100.483 47.45V52.55ZM107.433 45.325C107.433 41.5386 104.485 38.2 100.483 38.2V43.3C101.431 43.3 102.333 44.1114 102.333 45.325H107.433ZM100.483 38.2C96.4968 38.2 93.5582 41.5483 93.5582 45.325H98.6582C98.6582 44.1017 99.5697 43.3 100.483 43.3V38.2Z" fill="#FF26C2" mask="url(#path-4-inside-2_40_2)"/>
    </g>
    <g style="mix-blend-mode:hard-light" filter="url(#filter3_ddi_40_2)">
        <mask id="path-6-inside-3_40_2" fill="white">
            <path d="M38.05 74.325V68.725C34 67.95 30.425 65.975 27.375 62.85L33.05 56.825C35.875 59.425 38.7 60.775 41.775 60.775C44.725 60.775 46 59.65 46 58.075C46 56.325 44.475 55.325 39.925 53.975C32.7 51.825 29.725 48.65 29.725 43.175C29.725 38.65 32.125 34.325 38.05 33.05V27.05H46.125V33.125C49.525 33.85 52.225 35.45 54.625 37.625L49.625 43.85C48 42.35 45.025 40.875 42.125 40.875C39.875 40.875 38.725 41.875 38.725 42.9C38.725 44.325 39.8 45.225 44.375 46.775C52.225 49.45 55.125 52.525 55.125 57.9C55.125 63.4 51.7 67.375 46.125 68.65V74.325H38.05ZM71.3817 32.625C78.4567 32.625 84.1817 38.425 84.1817 45.45C84.1817 48.575 83.0317 51.625 81.5817 54.025L72.8817 68.5H62.9567L70.0317 57.2C69.6567 57.25 69.2817 57.275 68.9067 57.275C63.4817 57.275 58.6317 52.625 58.6317 45.45C58.6317 38.425 64.3317 32.625 71.3817 32.625ZM67.0067 45.325C67.0067 47.925 68.9317 50 71.3817 50C73.8567 50 75.7817 47.925 75.7817 45.325C75.7817 42.825 73.8567 40.75 71.3817 40.75C68.9317 40.75 67.0067 42.825 67.0067 45.325ZM100.483 32.625C107.558 32.625 113.283 38.425 113.283 45.45C113.283 48.575 112.133 51.625 110.683 54.025L101.983 68.5H92.0582L99.1332 57.2C98.7582 57.25 98.3832 57.275 98.0082 57.275C92.5832 57.275 87.7332 52.625 87.7332 45.45C87.7332 38.425 93.4332 32.625 100.483 32.625ZM96.1082 45.325C96.1082 47.925 98.0332 50 100.483 50C102.958 50 104.883 47.925 104.883 45.325C104.883 42.825 102.958 40.75 100.483 40.75C98.0332 40.75 96.1082 42.825 96.1082 45.325Z"/>
        </mask>
        <path d="M38.05 74.325H36.1V76.275H38.05V74.325ZM38.05 68.725H40V67.1128L38.4165 66.8098L38.05 68.725ZM27.375 62.85L25.9556 61.513L24.6736 62.874L25.9795 64.212L27.375 62.85ZM33.05 56.825L34.3706 55.3902L32.9522 54.0848L31.6306 55.488L33.05 56.825ZM39.925 53.975L39.3689 55.844L39.3704 55.8444L39.925 53.975ZM38.05 33.05L38.4603 34.9564L40 34.625V33.05H38.05ZM38.05 27.05V25.1H36.1V27.05H38.05ZM46.125 27.05H48.075V25.1H46.125V27.05ZM46.125 33.125H44.175V34.703L45.7184 35.0321L46.125 33.125ZM54.625 37.625L56.1453 38.8461L57.2958 37.4138L55.9345 36.1801L54.625 37.625ZM49.625 43.85L48.3024 45.2829L49.8373 46.6997L51.1453 45.0711L49.625 43.85ZM44.375 46.775L45.004 44.9292L45.0007 44.9281L44.375 46.775ZM46.125 68.65L45.6903 66.7491L44.175 67.0956V68.65H46.125ZM46.125 74.325V76.275H48.075V74.325H46.125ZM40 74.325V68.725H36.1V74.325H40ZM38.4165 66.8098C34.7849 66.1148 31.5619 64.348 28.7705 61.488L25.9795 64.212C29.2882 67.602 33.2152 69.7852 37.6835 70.6402L38.4165 66.8098ZM28.7945 64.187L34.4695 58.162L31.6306 55.488L25.9556 61.513L28.7945 64.187ZM31.7295 58.2598C34.786 61.0729 38.0605 62.725 41.775 62.725V58.825C39.3396 58.825 36.964 57.7771 34.3706 55.3902L31.7295 58.2598ZM41.775 62.725C43.4525 62.725 44.9625 62.4126 46.1071 61.6165C47.3489 60.7529 47.95 59.4633 47.95 58.075H44.05C44.05 58.2617 44.0136 58.3221 43.8804 58.4147C43.65 58.5749 43.0475 58.825 41.775 58.825V62.725ZM47.95 58.075C47.95 57.3343 47.783 56.5911 47.3679 55.8912C46.9648 55.2116 46.3941 54.6845 45.7554 54.2558C44.5344 53.4365 42.7569 52.7812 40.4797 52.1056L39.3704 55.8444C41.6431 56.5188 42.9032 57.0385 43.5822 57.4942C43.8934 57.703 43.9884 57.8384 44.0134 57.8806C44.0265 57.9026 44.05 57.9407 44.05 58.075H47.95ZM40.4812 52.106C37.0097 51.073 34.84 49.869 33.5345 48.4842C32.295 47.1694 31.675 45.5209 31.675 43.175H27.775C27.775 46.3041 28.6426 48.9806 30.6968 51.1595C32.685 53.2685 35.6153 54.727 39.3689 55.844L40.4812 52.106ZM31.675 43.175C31.675 41.2494 32.185 39.4659 33.2315 38.0559C34.2616 36.668 35.9117 35.5048 38.4603 34.9564L37.6398 31.1436C34.2633 31.8702 31.7509 33.507 30.0998 35.7316C28.4651 37.9341 27.775 40.5756 27.775 43.175H31.675ZM40 33.05V27.05H36.1V33.05H40ZM38.05 29H46.125V25.1H38.05V29ZM44.175 27.05V33.125H48.075V27.05H44.175ZM45.7184 35.0321C48.7178 35.6717 51.1171 37.0775 53.3156 39.0699L55.9345 36.1801C53.333 33.8225 50.3322 32.0283 46.5317 31.2179L45.7184 35.0321ZM53.1047 36.4039L48.1047 42.6289L51.1453 45.0711L56.1453 38.8461L53.1047 36.4039ZM50.9477 42.4171C49.0242 40.6416 45.5932 38.925 42.125 38.925V42.825C44.4568 42.825 46.9759 44.0584 48.3024 45.2829L50.9477 42.4171ZM42.125 38.925C40.7322 38.925 39.4751 39.2321 38.5017 39.8793C37.5154 40.535 36.775 41.5964 36.775 42.9H40.675C40.675 43.1785 40.5097 43.2275 40.6609 43.127C40.8249 43.0179 41.2678 42.825 42.125 42.825V38.925ZM36.775 42.9C36.775 43.5191 36.8964 44.1837 37.2613 44.8382C37.6151 45.4728 38.1264 45.9695 38.7055 46.3806C39.8035 47.1602 41.4648 47.8479 43.7493 48.6219L45.0007 44.9281C42.7103 44.1521 41.5465 43.6148 40.9633 43.2007C40.7017 43.0149 40.6584 42.9225 40.6677 42.9391C40.688 42.9757 40.675 42.9934 40.675 42.9H36.775ZM43.7461 48.6208C47.5743 49.9253 49.9066 51.2393 51.288 52.6764C52.5812 54.0217 53.175 55.616 53.175 57.9H57.075C57.075 54.809 56.2189 52.1783 54.0996 49.9736C52.0685 47.8607 49.0257 46.2997 45.004 44.9292L43.7461 48.6208ZM53.175 57.9C53.175 60.2283 52.4576 62.1414 51.2253 63.6018C49.9856 65.071 48.1315 66.1908 45.6903 66.7491L46.5598 70.5509C49.6936 69.8342 52.3394 68.329 54.206 66.1169C56.0799 63.8961 57.075 61.0717 57.075 57.9H53.175ZM44.175 68.65V74.325H48.075V68.65H44.175ZM46.125 72.375H38.05V76.275H46.125V72.375ZM81.5817 54.025L79.9126 53.0166L79.9103 53.0205L81.5817 54.025ZM72.8817 68.5V70.45H73.9848L74.553 69.5045L72.8817 68.5ZM62.9567 68.5L61.3039 67.4652L59.4351 70.45H62.9567V68.5ZM70.0317 57.2L71.6844 58.2348L73.8858 54.7189L69.7739 55.2671L70.0317 57.2ZM71.3817 34.575C77.3698 34.575 82.2317 39.492 82.2317 45.45H86.1317C86.1317 37.358 79.5435 30.675 71.3817 30.675V34.575ZM82.2317 45.45C82.2317 48.1187 81.2391 50.821 79.9126 53.0166L83.2507 55.0334C84.8242 52.429 86.1317 49.0313 86.1317 45.45H82.2317ZM79.9103 53.0205L71.2103 67.4955L74.553 69.5045L83.253 55.0295L79.9103 53.0205ZM72.8817 66.55H62.9567V70.45H72.8817V66.55ZM64.6094 69.5348L71.6844 58.2348L68.3789 56.1652L61.3039 67.4652L64.6094 69.5348ZM69.7739 55.2671C69.4836 55.3058 69.1947 55.325 68.9067 55.325V59.225C69.3686 59.225 69.8297 59.1942 70.2894 59.1329L69.7739 55.2671ZM68.9067 55.325C64.7122 55.325 60.5817 51.7083 60.5817 45.45H56.6817C56.6817 53.5417 62.2511 59.225 68.9067 59.225V55.325ZM60.5817 45.45C60.5817 39.4846 65.4259 34.575 71.3817 34.575V30.675C63.2374 30.675 56.6817 37.3654 56.6817 45.45H60.5817ZM65.0567 45.325C65.0567 48.8731 67.7302 51.95 71.3817 51.95V48.05C70.1332 48.05 68.9567 46.9769 68.9567 45.325H65.0567ZM71.3817 51.95C75.0511 51.95 77.7317 48.8806 77.7317 45.325H73.8317C73.8317 46.9694 72.6622 48.05 71.3817 48.05V51.95ZM77.7317 45.325C77.7317 41.8413 75.0245 38.8 71.3817 38.8V42.7C72.6888 42.7 73.8317 43.8087 73.8317 45.325H77.7317ZM71.3817 38.8C67.7567 38.8 65.0567 41.8487 65.0567 45.325H68.9567C68.9567 43.8013 70.1066 42.7 71.3817 42.7V38.8ZM110.683 54.025L109.014 53.0166L109.012 53.0205L110.683 54.025ZM101.983 68.5V70.45H103.086L103.655 69.5045L101.983 68.5ZM92.0582 68.5L90.4055 67.4652L88.5366 70.45H92.0582V68.5ZM99.1332 57.2L100.786 58.2348L102.987 54.7189L98.8755 55.2671L99.1332 57.2ZM100.483 34.575C106.471 34.575 111.333 39.492 111.333 45.45H115.233C115.233 37.358 108.645 30.675 100.483 30.675V34.575ZM111.333 45.45C111.333 48.1187 110.341 50.821 109.014 53.0166L112.352 55.0334C113.926 52.429 115.233 49.0313 115.233 45.45H111.333ZM109.012 53.0205L100.312 67.4955L103.655 69.5045L112.355 55.0295L109.012 53.0205ZM101.983 66.55H92.0582V70.45H101.983V66.55ZM93.711 69.5348L100.786 58.2348L97.4805 56.1652L90.4055 67.4652L93.711 69.5348ZM98.8755 55.2671C98.5852 55.3058 98.2963 55.325 98.0082 55.325V59.225C98.4702 59.225 98.9313 59.1942 99.3909 59.1329L98.8755 55.2671ZM98.0082 55.325C93.8138 55.325 89.6832 51.7083 89.6832 45.45H85.7832C85.7832 53.5417 91.3527 59.225 98.0082 59.225V55.325ZM89.6832 45.45C89.6832 39.4846 94.5275 34.575 100.483 34.575V30.675C92.339 30.675 85.7832 37.3654 85.7832 45.45H89.6832ZM94.1582 45.325C94.1582 48.8731 96.8317 51.95 100.483 51.95V48.05C99.2347 48.05 98.0582 46.9769 98.0582 45.325H94.1582ZM100.483 51.95C104.153 51.95 106.833 48.8806 106.833 45.325H102.933C102.933 46.9694 101.764 48.05 100.483 48.05V51.95ZM106.833 45.325C106.833 41.8413 104.126 38.8 100.483 38.8V42.7C101.79 42.7 102.933 43.8087 102.933 45.325H106.833ZM100.483 38.8C96.8583 38.8 94.1582 41.8487 94.1582 45.325H98.0582C98.0582 43.8013 99.2082 42.7 100.483 42.7V38.8Z" fill="#FB37FF" fill-opacity="0.2" mask="url(#path-6-inside-3_40_2)"/>
    </g>
    <g filter="url(#filter4_f_40_2)">
        <mask id="path-8-inside-4_40_2" fill="white">
            <path d="M38.05 74.325V68.725C34 67.95 30.425 65.975 27.375 62.85L33.05 56.825C35.875 59.425 38.7 60.775 41.775 60.775C44.725 60.775 46 59.65 46 58.075C46 56.325 44.475 55.325 39.925 53.975C32.7 51.825 29.725 48.65 29.725 43.175C29.725 38.65 32.125 34.325 38.05 33.05V27.05H46.125V33.125C49.525 33.85 52.225 35.45 54.625 37.625L49.625 43.85C48 42.35 45.025 40.875 42.125 40.875C39.875 40.875 38.725 41.875 38.725 42.9C38.725 44.325 39.8 45.225 44.375 46.775C52.225 49.45 55.125 52.525 55.125 57.9C55.125 63.4 51.7 67.375 46.125 68.65V74.325H38.05ZM71.3817 32.625C78.4567 32.625 84.1817 38.425 84.1817 45.45C84.1817 48.575 83.0317 51.625 81.5817 54.025L72.8817 68.5H62.9567L70.0317 57.2C69.6567 57.25 69.2817 57.275 68.9067 57.275C63.4817 57.275 58.6317 52.625 58.6317 45.45C58.6317 38.425 64.3317 32.625 71.3817 32.625ZM67.0067 45.325C67.0067 47.925 68.9317 50 71.3817 50C73.8567 50 75.7817 47.925 75.7817 45.325C75.7817 42.825 73.8567 40.75 71.3817 40.75C68.9317 40.75 67.0067 42.825 67.0067 45.325ZM100.483 32.625C107.558 32.625 113.283 38.425 113.283 45.45C113.283 48.575 112.133 51.625 110.683 54.025L101.983 68.5H92.0582L99.1332 57.2C98.7582 57.25 98.3832 57.275 98.0082 57.275C92.5832 57.275 87.7332 52.625 87.7332 45.45C87.7332 38.425 93.4332 32.625 100.483 32.625ZM96.1082 45.325C96.1082 47.925 98.0332 50 100.483 50C102.958 50 104.883 47.925 104.883 45.325C104.883 42.825 102.958 40.75 100.483 40.75C98.0332 40.75 96.1082 42.825 96.1082 45.325Z"/>
        </mask>
        <path d="M38.05 74.325H36.85V75.525H38.05V74.325ZM38.05 68.725H39.25V67.7329L38.2756 67.5464L38.05 68.725ZM27.375 62.85L26.5015 62.0272L25.7126 62.8648L26.5163 63.6882L27.375 62.85ZM33.05 56.825L33.8627 55.942L32.9898 55.1387L32.1765 56.0022L33.05 56.825ZM39.925 53.975L39.5828 55.1252L39.5837 55.1254L39.925 53.975ZM38.05 33.05L38.3025 34.2231L39.25 34.0192V33.05H38.05ZM38.05 27.05V25.85H36.85V27.05H38.05ZM46.125 27.05H47.325V25.85H46.125V27.05ZM46.125 33.125H44.925V34.0961L45.8748 34.2986L46.125 33.125ZM54.625 37.625L55.5606 38.3765L56.2686 37.495L55.4308 36.7358L54.625 37.625ZM49.625 43.85L48.8111 44.7318L49.7556 45.6036L50.5606 44.6015L49.625 43.85ZM44.375 46.775L44.7621 45.6391L44.7601 45.6385L44.375 46.775ZM46.125 68.65L45.8575 67.4802L44.925 67.6935V68.65H46.125ZM46.125 74.325V75.525H47.325V74.325H46.125ZM39.25 74.325V68.725H36.85V74.325H39.25ZM38.2756 67.5464C34.483 66.8207 31.1246 64.9738 28.2338 62.0118L26.5163 63.6882C29.7254 66.9762 33.517 69.0793 37.8245 69.9036L38.2756 67.5464ZM28.2485 63.6728L33.9235 57.6478L32.1765 56.0022L26.5015 62.0272L28.2485 63.6728ZM32.2374 57.708C35.2049 60.4391 38.3065 61.975 41.775 61.975V59.575C39.0936 59.575 36.5452 58.4109 33.8627 55.942L32.2374 57.708ZM41.775 61.975C43.3747 61.975 44.7101 61.6746 45.6789 61.0008C46.7075 60.2855 47.2 59.2322 47.2 58.075H44.8C44.8 58.4928 44.655 58.7895 44.3086 59.0304C43.9024 59.3129 43.1254 59.575 41.775 59.575V61.975ZM47.2 58.075C47.2 57.4509 47.0606 56.8433 46.7228 56.2738C46.3924 55.7168 45.9132 55.265 45.3374 54.8786C44.2207 54.1292 42.5427 53.5 40.2664 52.8246L39.5837 55.1254C41.8573 55.8 43.2169 56.3458 44.0001 56.8714C44.3743 57.1225 44.5607 57.3332 44.6585 57.4981C44.7489 57.6504 44.8 57.8241 44.8 58.075H47.2ZM40.2673 52.8248C36.7416 51.7757 34.4256 50.5227 32.9888 48.9987C31.5926 47.5177 30.925 45.6715 30.925 43.175H28.525C28.525 46.1535 29.345 48.6323 31.2425 50.645C33.0995 52.6148 35.8835 54.0243 39.5828 55.1252L40.2673 52.8248ZM30.925 43.175C30.925 41.1198 31.4696 39.1713 32.6292 37.6089C33.7788 36.0601 35.5947 34.8058 38.3025 34.2231L37.7976 31.8769C34.5803 32.5692 32.2338 34.1149 30.7021 36.1786C29.1804 38.2287 28.525 40.7052 28.525 43.175H30.925ZM39.25 33.05V27.05H36.85V33.05H39.25ZM38.05 28.25H46.125V25.85H38.05V28.25ZM44.925 27.05V33.125H47.325V27.05H44.925ZM45.8748 34.2986C49.0283 34.9711 51.5432 36.4516 53.8192 38.5142L55.4308 36.7358C52.9068 34.4484 50.0218 32.7289 46.3753 31.9514L45.8748 34.2986ZM53.6895 36.8735L48.6895 43.0985L50.5606 44.6015L55.5606 38.3765L53.6895 36.8735ZM50.439 42.9682C48.6303 41.2987 45.3747 39.675 42.125 39.675V42.075C44.6754 42.075 47.3698 43.4013 48.8111 44.7318L50.439 42.9682ZM42.125 39.675C40.8352 39.675 39.7347 39.9601 38.9169 40.5038C38.0912 41.0528 37.525 41.9007 37.525 42.9H39.925C39.925 42.8743 39.9339 42.7097 40.2456 42.5024C40.5654 42.2899 41.1648 42.075 42.125 42.075V39.675ZM37.525 42.9C37.525 43.418 37.6255 43.9514 37.9164 44.473C38.2003 44.9824 38.6217 45.4013 39.1397 45.7691C40.1387 46.4784 41.7043 47.1372 43.99 47.9115L44.7601 45.6385C42.4707 44.8628 41.2113 44.2966 40.5291 43.8122C40.2065 43.5831 40.0731 43.4129 40.0126 43.3043C39.9589 43.208 39.925 43.0945 39.925 42.9H37.525ZM43.988 47.9109C47.8534 49.2281 50.3223 50.5896 51.8287 52.1566C53.2807 53.6672 53.925 55.4608 53.925 57.9H56.325C56.325 54.9642 55.5193 52.5328 53.5589 50.4934C51.6527 48.5104 48.7466 46.9969 44.7621 45.6391L43.988 47.9109ZM53.925 57.9C53.925 60.3905 53.1542 62.4789 51.7985 64.0855C50.4383 65.6975 48.4319 66.8914 45.8575 67.4802L46.3926 69.8198C49.3932 69.1336 51.8868 67.7025 53.6328 65.6332C55.3833 63.5586 56.325 60.9095 56.325 57.9H53.925ZM44.925 68.65V74.325H47.325V68.65H44.925ZM46.125 73.125H38.05V75.525H46.125V73.125ZM81.5817 54.025L80.5546 53.4045L80.5531 53.4068L81.5817 54.025ZM72.8817 68.5V69.7H73.5605L73.9102 69.1182L72.8817 68.5ZM62.9567 68.5L61.9396 67.8632L60.7895 69.7H62.9567V68.5ZM70.0317 57.2L71.0488 57.8368L72.4034 55.6731L69.8731 56.0105L70.0317 57.2ZM71.3817 33.825C77.7878 33.825 82.9817 39.0816 82.9817 45.45H85.3817C85.3817 37.7684 79.1255 31.425 71.3817 31.425V33.825ZM82.9817 45.45C82.9817 48.2942 81.9286 51.1303 80.5546 53.4045L82.6088 54.6455C84.1348 52.1197 85.3817 48.8558 85.3817 45.45H82.9817ZM80.5531 53.4068L71.8531 67.8818L73.9102 69.1182L82.6102 54.6432L80.5531 53.4068ZM72.8817 67.3H62.9567V69.7H72.8817V67.3ZM63.9738 69.1368L71.0488 57.8368L69.0146 56.5632L61.9396 67.8632L63.9738 69.1368ZM69.8731 56.0105C69.5502 56.0536 69.2282 56.075 68.9067 56.075V58.475C69.3352 58.475 69.7632 58.4464 70.1903 58.3895L69.8731 56.0105ZM68.9067 56.075C64.2389 56.075 59.8317 52.0609 59.8317 45.45H57.4317C57.4317 53.1891 62.7244 58.475 68.9067 58.475V56.075ZM59.8317 45.45C59.8317 39.077 65.0051 33.825 71.3817 33.825V31.425C63.6583 31.425 57.4317 37.773 57.4317 45.45H59.8317ZM65.8067 45.325C65.8067 48.5084 68.1923 51.2 71.3817 51.2V48.8C69.671 48.8 68.2067 47.3416 68.2067 45.325H65.8067ZM71.3817 51.2C74.5917 51.2 76.9817 48.513 76.9817 45.325H74.5817C74.5817 47.337 73.1216 48.8 71.3817 48.8V51.2ZM76.9817 45.325C76.9817 42.2196 74.5754 39.55 71.3817 39.55V41.95C73.138 41.95 74.5817 43.4304 74.5817 45.325H76.9817ZM71.3817 39.55C68.2086 39.55 65.8067 42.2242 65.8067 45.325H68.2067C68.2067 43.4258 69.6547 41.95 71.3817 41.95V39.55ZM110.683 54.025L109.656 53.4045L109.655 53.4068L110.683 54.025ZM101.983 68.5V69.7H102.662L103.012 69.1182L101.983 68.5ZM92.0582 68.5L91.0411 67.8632L89.8911 69.7H92.0582V68.5ZM99.1332 57.2L100.15 57.8368L101.505 55.6731L98.9746 56.0105L99.1332 57.2ZM100.483 33.825C106.889 33.825 112.083 39.0816 112.083 45.45H114.483C114.483 37.7684 108.227 31.425 100.483 31.425V33.825ZM112.083 45.45C112.083 48.2942 111.03 51.1303 109.656 53.4045L111.71 54.6455C113.236 52.1197 114.483 48.8558 114.483 45.45H112.083ZM109.655 53.4068L100.955 67.8818L103.012 69.1182L111.712 54.6432L109.655 53.4068ZM101.983 67.3H92.0582V69.7H101.983V67.3ZM93.0753 69.1368L100.15 57.8368L98.1161 56.5632L91.0411 67.8632L93.0753 69.1368ZM98.9746 56.0105C98.6517 56.0536 98.3297 56.075 98.0082 56.075V58.475C98.4367 58.475 98.8647 58.4464 99.2918 58.3895L98.9746 56.0105ZM98.0082 56.075C93.3405 56.075 88.9332 52.0609 88.9332 45.45H86.5332C86.5332 53.1891 91.826 58.475 98.0082 58.475V56.075ZM88.9332 45.45C88.9332 39.077 94.1066 33.825 100.483 33.825V31.425C92.7598 31.425 86.5332 37.773 86.5332 45.45H88.9332ZM94.9082 45.325C94.9082 48.5084 97.2939 51.2 100.483 51.2V48.8C98.7726 48.8 97.3082 47.3416 97.3082 45.325H94.9082ZM100.483 51.2C103.693 51.2 106.083 48.513 106.083 45.325H103.683C103.683 47.337 102.223 48.8 100.483 48.8V51.2ZM106.083 45.325C106.083 42.2196 103.677 39.55 100.483 39.55V41.95C102.24 41.95 103.683 43.4304 103.683 45.325H106.083ZM100.483 39.55C97.3102 39.55 94.9082 42.2242 94.9082 45.325H97.3082C97.3082 43.4258 98.7563 41.95 100.483 41.95V39.55Z" fill="#FB37FF" mask="url(#path-8-inside-4_40_2)"/>
    </g>
    <g filter="url(#filter5_f_40_2)">
        <mask id="path-10-inside-5_40_2" fill="white">
            <path d="M38.05 74.325V68.725C34 67.95 30.425 65.975 27.375 62.85L33.05 56.825C35.875 59.425 38.7 60.775 41.775 60.775C44.725 60.775 46 59.65 46 58.075C46 56.325 44.475 55.325 39.925 53.975C32.7 51.825 29.725 48.65 29.725 43.175C29.725 38.65 32.125 34.325 38.05 33.05V27.05H46.125V33.125C49.525 33.85 52.225 35.45 54.625 37.625L49.625 43.85C48 42.35 45.025 40.875 42.125 40.875C39.875 40.875 38.725 41.875 38.725 42.9C38.725 44.325 39.8 45.225 44.375 46.775C52.225 49.45 55.125 52.525 55.125 57.9C55.125 63.4 51.7 67.375 46.125 68.65V74.325H38.05ZM71.3817 32.625C78.4567 32.625 84.1817 38.425 84.1817 45.45C84.1817 48.575 83.0317 51.625 81.5817 54.025L72.8817 68.5H62.9567L70.0317 57.2C69.6567 57.25 69.2817 57.275 68.9067 57.275C63.4817 57.275 58.6317 52.625 58.6317 45.45C58.6317 38.425 64.3317 32.625 71.3817 32.625ZM67.0067 45.325C67.0067 47.925 68.9317 50 71.3817 50C73.8567 50 75.7817 47.925 75.7817 45.325C75.7817 42.825 73.8567 40.75 71.3817 40.75C68.9317 40.75 67.0067 42.825 67.0067 45.325ZM100.483 32.625C107.558 32.625 113.283 38.425 113.283 45.45C113.283 48.575 112.133 51.625 110.683 54.025L101.983 68.5H92.0582L99.1332 57.2C98.7582 57.25 98.3832 57.275 98.0082 57.275C92.5832 57.275 87.7332 52.625 87.7332 45.45C87.7332 38.425 93.4332 32.625 100.483 32.625ZM96.1082 45.325C96.1082 47.925 98.0332 50 100.483 50C102.958 50 104.883 47.925 104.883 45.325C104.883 42.825 102.958 40.75 100.483 40.75C98.0332 40.75 96.1082 42.825 96.1082 45.325Z"/>
        </mask>
        <path d="M38.05 74.325H37.45V74.925H38.05V74.325ZM38.05 68.725H38.65V68.2289L38.1628 68.1357L38.05 68.725ZM27.375 62.85L26.9383 62.4386L26.5438 62.8574L26.9456 63.2691L27.375 62.85ZM33.05 56.825L33.4563 56.3835L33.0199 55.9819L32.6133 56.4136L33.05 56.825ZM39.925 53.975L39.7539 54.5501L39.7544 54.5502L39.925 53.975ZM38.05 33.05L38.1762 33.6366L38.65 33.5346V33.05H38.05ZM38.05 27.05V26.45H37.45V27.05H38.05ZM46.125 27.05H46.725V26.45H46.125V27.05ZM46.125 33.125H45.525V33.6105L45.9999 33.7118L46.125 33.125ZM54.625 37.625L55.0928 38.0007L55.4468 37.56L55.0279 37.1804L54.625 37.625ZM49.625 43.85L49.2181 44.2909L49.6903 44.7268L50.0928 44.2257L49.625 43.85ZM44.375 46.775L44.5686 46.2071L44.5676 46.2067L44.375 46.775ZM46.125 68.65L45.9913 68.0651L45.525 68.1717V68.65H46.125ZM46.125 74.325V74.925H46.725V74.325H46.125ZM38.65 74.325V68.725H37.45V74.325H38.65ZM38.1628 68.1357C34.2415 67.3853 30.7748 65.4744 27.8044 62.4309L26.9456 63.2691C30.0752 66.4756 33.7585 68.5147 37.9373 69.3143L38.1628 68.1357ZM27.8118 63.2614L33.4868 57.2364L32.6133 56.4136L26.9383 62.4386L27.8118 63.2614ZM32.6437 57.2665C35.5399 59.932 38.5032 61.375 41.775 61.375V60.175C38.8968 60.175 36.2101 58.918 33.4563 56.3835L32.6437 57.2665ZM41.775 61.375C43.3123 61.375 44.5082 61.0842 45.3363 60.5082C46.1944 59.9115 46.6 59.0474 46.6 58.075H45.4C45.4 58.6776 45.1682 59.1635 44.6512 59.523C44.1044 59.9033 43.1877 60.175 41.775 60.175V61.375ZM46.6 58.075C46.6 57.5442 46.4826 57.0451 46.2067 56.5799C45.9345 56.1209 45.5285 55.7294 45.0031 55.3768C43.9697 54.6833 42.3714 54.075 40.0957 53.3998L39.7544 54.5502C42.0287 55.225 43.4678 55.7917 44.3344 56.3732C44.759 56.6581 45.0187 56.9291 45.1746 57.192C45.3268 57.4486 45.4 57.7308 45.4 58.075H46.6ZM40.0962 53.3999C36.527 52.3378 34.0941 51.0457 32.5522 49.4103C31.0307 47.7964 30.325 45.792 30.325 43.175H29.125C29.125 46.033 29.9069 48.3536 31.6791 50.2335C33.431 52.0918 36.098 53.4622 39.7539 54.5501L40.0962 53.3999ZM30.325 43.175C30.325 41.0162 30.8973 38.9357 32.1474 37.2513C33.3925 35.5738 35.3411 34.2467 38.1762 33.6366L37.9238 32.4634C34.8339 33.1283 32.62 34.6012 31.1839 36.5362C29.7527 38.4643 29.125 40.8088 29.125 43.175H30.325ZM38.65 33.05V27.05H37.45V33.05H38.65ZM38.05 27.65H46.125V26.45H38.05V27.65ZM45.525 27.05V33.125H46.725V27.05H45.525ZM45.9999 33.7118C49.2767 34.4105 51.8841 35.9508 54.2221 38.0696L55.0279 37.1804C52.5659 34.9492 49.7734 33.2895 46.2502 32.5382L45.9999 33.7118ZM54.1572 37.2493L49.1572 43.4743L50.0928 44.2257L55.0928 38.0007L54.1572 37.2493ZM50.032 43.4091C48.3151 41.8243 45.1998 40.275 42.125 40.275V41.475C44.8502 41.475 47.6849 42.8757 49.2181 44.2909L50.032 43.4091ZM42.125 40.275C40.9176 40.275 39.9424 40.5426 39.2491 41.0035C38.5519 41.467 38.125 42.1441 38.125 42.9H39.325C39.325 42.6309 39.4732 42.2955 39.9135 42.0028C40.3577 41.7074 41.0824 41.475 42.125 41.475V40.275ZM38.125 42.9C38.125 43.3371 38.2089 43.7655 38.4404 44.1808C38.6685 44.59 39.0179 44.9467 39.487 45.2798C40.4069 45.933 41.8959 46.5686 44.1825 47.3433L44.5676 46.2067C42.2791 45.4314 40.9432 44.842 40.1818 44.3014C39.8103 44.0376 39.6049 43.8053 39.4885 43.5965C39.3755 43.3938 39.325 43.1754 39.325 42.9H38.125ZM44.1815 47.3429C48.0767 48.6703 50.6549 50.0698 52.2612 51.7408C53.8404 53.3836 54.525 55.3367 54.525 57.9H55.725C55.725 55.0883 54.9597 52.8164 53.1263 50.9092C51.3201 49.0302 48.5233 47.5547 44.5686 46.2071L44.1815 47.3429ZM54.525 57.9C54.525 60.5203 53.7115 62.7488 52.2571 64.4724C50.8004 66.1988 48.6722 67.452 45.9913 68.0651L46.2588 69.2349C49.1528 68.573 51.5246 67.2012 53.1742 65.2463C54.8261 63.2887 55.725 60.7797 55.725 57.9H54.525ZM45.525 68.65V74.325H46.725V68.65H45.525ZM46.125 73.725H38.05V74.925H46.125V73.725ZM81.5817 54.025L81.0681 53.7147L81.0674 53.7159L81.5817 54.025ZM72.8817 68.5V69.1H73.2211L73.3959 68.8091L72.8817 68.5ZM62.9567 68.5L62.4481 68.1816L61.8731 69.1H62.9567V68.5ZM70.0317 57.2L70.5402 57.5184L71.2176 56.4366L69.9524 56.6053L70.0317 57.2ZM71.3817 33.225C78.1223 33.225 83.5817 38.7533 83.5817 45.45H84.7817C84.7817 38.0967 78.7911 32.025 71.3817 32.025V33.225ZM83.5817 45.45C83.5817 48.4346 82.4801 51.3776 81.0681 53.7147L82.0952 54.3353C83.5832 51.8724 84.7817 48.7154 84.7817 45.45H83.5817ZM81.0674 53.7159L72.3674 68.1909L73.3959 68.8091L82.0959 54.3341L81.0674 53.7159ZM72.8817 67.9H62.9567V69.1H72.8817V67.9ZM63.4652 68.8184L70.5402 57.5184L69.5231 56.8816L62.4481 68.1816L63.4652 68.8184ZM69.9524 56.6053C69.6034 56.6518 69.2549 56.675 68.9067 56.675V57.875C69.3084 57.875 69.7099 57.8482 70.111 57.7947L69.9524 56.6053ZM68.9067 56.675C63.8603 56.675 59.2317 52.3429 59.2317 45.45H58.0317C58.0317 52.907 63.103 57.875 68.9067 57.875V56.675ZM59.2317 45.45C59.2317 38.751 64.6684 33.225 71.3817 33.225V32.025C63.995 32.025 58.0317 38.099 58.0317 45.45H59.2317ZM66.4067 45.325C66.4067 48.2167 68.562 50.6 71.3817 50.6V49.4C69.3014 49.4 67.6067 47.6333 67.6067 45.325H66.4067ZM71.3817 50.6C74.2242 50.6 76.3817 48.219 76.3817 45.325H75.1817C75.1817 47.631 73.4891 49.4 71.3817 49.4V50.6ZM76.3817 45.325C76.3817 42.5223 74.216 40.15 71.3817 40.15V41.35C73.4973 41.35 75.1817 43.1277 75.1817 45.325H76.3817ZM71.3817 40.15C68.5701 40.15 66.4067 42.5246 66.4067 45.325H67.6067C67.6067 43.1254 69.2932 41.35 71.3817 41.35V40.15ZM110.683 54.025L110.17 53.7147L110.169 53.7159L110.683 54.025ZM101.983 68.5V69.1H102.323L102.497 68.8091L101.983 68.5ZM92.0582 68.5L91.5497 68.1816L90.9747 69.1H92.0582V68.5ZM99.1332 57.2L99.6418 57.5184L100.319 56.4366L99.0539 56.6053L99.1332 57.2ZM100.483 33.225C107.224 33.225 112.683 38.7533 112.683 45.45H113.883C113.883 38.0967 107.893 32.025 100.483 32.025V33.225ZM112.683 45.45C112.683 48.4346 111.582 51.3776 110.17 53.7147L111.197 54.3353C112.685 51.8724 113.883 48.7154 113.883 45.45H112.683ZM110.169 53.7159L101.469 68.1909L102.497 68.8091L111.197 54.3341L110.169 53.7159ZM101.983 67.9H92.0582V69.1H101.983V67.9ZM92.5668 68.8184L99.6418 57.5184L98.6247 56.8816L91.5497 68.1816L92.5668 68.8184ZM99.0539 56.6053C98.705 56.6518 98.3565 56.675 98.0082 56.675V57.875C98.41 57.875 98.8115 57.8482 99.2125 57.7947L99.0539 56.6053ZM98.0082 56.675C92.9619 56.675 88.3332 52.3429 88.3332 45.45H87.1332C87.1332 52.907 92.2046 57.875 98.0082 57.875V56.675ZM88.3332 45.45C88.3332 38.751 93.7699 33.225 100.483 33.225V32.025C93.0965 32.025 87.1332 38.099 87.1332 45.45H88.3332ZM95.5082 45.325C95.5082 48.2167 97.6635 50.6 100.483 50.6V49.4C98.4029 49.4 96.7082 47.6333 96.7082 45.325H95.5082ZM100.483 50.6C103.326 50.6 105.483 48.219 105.483 45.325H104.283C104.283 47.631 102.591 49.4 100.483 49.4V50.6ZM105.483 45.325C105.483 42.5223 103.318 40.15 100.483 40.15V41.35C102.599 41.35 104.283 43.1277 104.283 45.325H105.483ZM100.483 40.15C97.6717 40.15 95.5082 42.5246 95.5082 45.325H96.7082C96.7082 43.1254 98.3948 41.35 100.483 41.35V40.15Z" fill="white" mask="url(#path-10-inside-5_40_2)"/>
    </g>
    <path d="M126.625 70.376L131.784 57.86H132.995L127.843 70.376H126.625ZM134.3 68.5V60.814H135.336V61.675C135.917 60.989 136.792 60.653 137.527 60.653C138.696 60.653 139.592 61.192 140.054 62.116C140.579 61.136 141.664 60.653 142.546 60.653C144.296 60.653 145.423 61.864 145.423 63.747V68.5H144.331V63.866C144.331 62.515 143.568 61.696 142.434 61.696C141.314 61.696 140.404 62.725 140.404 63.978V68.5H139.312V63.866C139.312 62.515 138.549 61.696 137.415 61.696C136.351 61.696 135.476 62.62 135.392 63.789V68.5H134.3ZM150.901 68.689C148.759 68.689 146.995 66.925 146.995 64.685C146.995 62.438 148.766 60.66 150.915 60.66C153.057 60.66 154.828 62.438 154.828 64.685C154.828 66.925 153.057 68.689 150.901 68.689ZM148.087 64.678C148.087 66.365 149.375 67.646 150.922 67.646C152.448 67.646 153.736 66.365 153.736 64.678C153.736 62.998 152.448 61.703 150.922 61.703C149.375 61.703 148.087 62.998 148.087 64.678ZM156.694 68.5V60.814H157.73V61.871C158.269 61.171 159.27 60.653 160.341 60.653C162.224 60.653 163.393 61.878 163.393 63.908V68.5H162.287V64.055C162.287 62.578 161.489 61.71 160.138 61.71C158.843 61.71 157.786 62.704 157.786 64.083V68.5H156.694ZM165.674 68.5V61.829H164.386V60.814H165.667V59.05L166.773 58.84V60.814H168.684V61.829H166.766V68.5H165.674ZM169.983 68.5V57.839H171.075V61.801C171.621 61.136 172.594 60.653 173.63 60.653C175.513 60.653 176.682 61.878 176.682 63.908V68.5H175.576V64.055C175.576 62.578 174.778 61.71 173.427 61.71C172.132 61.71 171.075 62.704 171.075 64.083V68.5H169.983Z" fill="#F3FDFF"/>
    <defs>
        <filter id="filter0_f_40_2" x="0" y="0" width="142.8" height="102" filterUnits="userSpaceOnUse" color-interpolation-filters="sRGB">
            <feFlood flood-opacity="0" result="BackgroundImageFix"/>
            <feBlend mode="normal" in="SourceGraphic" in2="BackgroundImageFix" result="shape"/>
            <feGaussianBlur stdDeviation="9" result="effect1_foregroundBlur_40_2"/>
        </filter>
        <filter id="filter1_f_40_2" x="18.375" y="18.05" width="103.908" height="65.2749" filterUnits="userSpaceOnUse" color-interpolation-filters="sRGB">
            <feFlood flood-opacity="0" result="BackgroundImageFix"/>
            <feBlend mode="normal" in="SourceGraphic" in2="BackgroundImageFix" result="shape"/>
            <feGaussianBlur stdDeviation="4.5" result="effect1_foregroundBlur_40_2"/>
        </filter>
        <filter id="filter2_f_40_2" x="24.375" y="24.05" width="91.9082" height="53.2749" filterUnits="userSpaceOnUse" color-interpolation-filters="sRGB">
            <feFlood flood-opacity="0" result="BackgroundImageFix"/>
            <feBlend mode="normal" in="SourceGraphic" in2="BackgroundImageFix" result="shape"/>
            <feGaussianBlur stdDeviation="1.5" result="effect1_foregroundBlur_40_2"/>
        </filter>
        <filter id="filter3_ddi_40_2" x="23.475" y="26.15" width="93.7082" height="55.0749" filterUnits="userSpaceOnUse" color-interpolation-filters="sRGB">
            <feFlood flood-opacity="0" result="BackgroundImageFix"/>
            <feColorMatrix in="SourceAlpha" type="matrix" values="0 0 0 0 0 0 0 0 0 0 0 0 0 0 0 0 0 0 127 0" result="hardAlpha"/>
            <feOffset dy="1.95"/>
            <feGaussianBlur stdDeviation="0.75"/>
            <feColorMatrix type="matrix" values="0 0 0 0 0.3 0 0 0 0 0 0 0 0 0 0.26 0 0 0 0.7 0"/>
            <feBlend mode="multiply" in2="BackgroundImageFix" result="effect1_dropShadow_40_2"/>
            <feColorMatrix in="SourceAlpha" type="matrix" values="0 0 0 0 0 0 0 0 0 0 0 0 0 0 0 0 0 0 127 0" result="hardAlpha"/>
            <feOffset dy="3"/>
            <feGaussianBlur stdDeviation="1.95"/>
            <feColorMatrix type="matrix" values="0 0 0 0 0.6 0 0 0 0 0 0 0 0 0 0.6 0 0 0 1 0"/>
            <feBlend mode="color-dodge" in2="effect1_dropShadow_40_2" result="effect2_dropShadow_40_2"/>
            <feBlend mode="normal" in="SourceGraphic" in2="effect2_dropShadow_40_2" result="shape"/>
            <feColorMatrix in="SourceAlpha" type="matrix" values="0 0 0 0 0 0 0 0 0 0 0 0 0 0 0 0 0 0 127 0" result="hardAlpha"/>
            <feOffset dx="-0.195" dy="0.39"/>
            <feGaussianBlur stdDeviation="0.0975"/>
            <feComposite in2="hardAlpha" operator="arithmetic" k2="-1" k3="1"/>
            <feColorMatrix type="matrix" values="0 0 0 0 1 0 0 0 0 1 0 0 0 0 1 0 0 0 0.5 0"/>
            <feBlend mode="normal" in2="shape" result="effect3_innerShadow_40_2"/>
        </filter>
        <filter id="filter4_f_40_2" x="27.075" y="26.75" width="86.5082" height="47.8749" filterUnits="userSpaceOnUse" color-interpolation-filters="sRGB">
            <feFlood flood-opacity="0" result="BackgroundImageFix"/>
            <feBlend mode="normal" in="SourceGraphic" in2="BackgroundImageFix" result="shape"/>
            <feGaussianBlur stdDeviation="0.15" result="effect1_foregroundBlur_40_2"/>
        </filter>
        <filter id="filter5_f_40_2" x="27.175" y="26.85" width="86.3082" height="47.6749" filterUnits="userSpaceOnUse" color-interpolation-filters="sRGB">
            <feFlood flood-opacity="0" result="BackgroundImageFix"/>
            <feBlend mode="normal" in="SourceGraphic" in2="BackgroundImageFix" result="shape"/>
            <feGaussianBlur stdDeviation="0.1" result="effect1_foregroundBlur_40_2"/>
        </filter>
    </defs>
</svg>
