<svg width="46" height="43" viewBox="0 0 46 43" fill="none" xmlns="http://www.w3.org/2000/svg">
<g filter="url(#filter0_d_461_26)">
<path d="M29.5306 15.8043L21.5306 23.8043C21.4609 23.8742 21.3781 23.9296 21.287 23.9675C21.1958 24.0054 21.0981 24.0248 20.9993 24.0248C20.9006 24.0248 20.8029 24.0054 20.7117 23.9675C20.6206 23.9296 20.5378 23.8742 20.4681 23.8043L16.9681 20.3043C16.8983 20.2345 16.843 20.1517 16.8052 20.0605C16.7675 19.9694 16.748 19.8717 16.748 19.773C16.748 19.6743 16.7675 19.5766 16.8052 19.4855C16.843 19.3943 16.8983 19.3115 16.9681 19.2418C17.0379 19.172 17.1207 19.1166 17.2118 19.0789C17.303 19.0411 17.4007 19.0217 17.4993 19.0217C17.598 19.0217 17.6957 19.0411 17.7869 19.0789C17.878 19.1166 17.9608 19.172 18.0306 19.2418L21 22.2111L28.4693 14.743C28.6102 14.6021 28.8013 14.5229 29.0006 14.5229C29.1999 14.5229 29.391 14.6021 29.5318 14.743C29.6727 14.8839 29.7519 15.075 29.7519 15.2743C29.7519 15.4735 29.6727 15.6646 29.5318 15.8055L29.5306 15.8043Z" fill="white"/>
</g>
<defs>
<filter id="filter0_d_461_26" x="-1" y="-3.22632" width="48" height="48" filterUnits="userSpaceOnUse" color-interpolation-filters="sRGB">
<feFlood flood-opacity="0" result="BackgroundImageFix"/>
<feColorMatrix in="SourceAlpha" type="matrix" values="0 0 0 0 0 0 0 0 0 0 0 0 0 0 0 0 0 0 127 0" result="hardAlpha"/>
<feOffset dy="2"/>
<feGaussianBlur stdDeviation="8"/>
<feComposite in2="hardAlpha" operator="out"/>
<feColorMatrix type="matrix" values="0 0 0 0 0 0 0 0 0 0 0 0 0 0 0 0 0 0 0.8 0"/>
<feBlend mode="normal" in2="BackgroundImageFix" result="effect1_dropShadow_461_26"/>
<feBlend mode="normal" in="SourceGraphic" in2="effect1_dropShadow_461_26" result="shape"/>
</filter>
</defs>
</svg>
