<svg width="34" height="34" viewBox="0 0 34 34" fill="none" xmlns="http://www.w3.org/2000/svg">
<rect x="0.5" y="0.5" width="33" height="33" rx="3.5" stroke="white" stroke-opacity="0.25"/>
<path d="M26.75 17C26.7469 19.3829 25.8726 21.6825 24.2917 23.4656C22.7109 25.2486 20.5326 26.3921 18.1671 26.6806C18.1145 26.6866 18.0611 26.6813 18.0107 26.6651C17.9602 26.649 17.9137 26.6223 17.8743 26.5869C17.8348 26.5514 17.8034 26.508 17.782 26.4596C17.7605 26.4111 17.7496 26.3586 17.75 26.3056V19.25H20C20.1028 19.2502 20.2045 19.2293 20.2989 19.1885C20.3933 19.1478 20.4783 19.088 20.5487 19.013C20.619 18.938 20.6732 18.8494 20.7078 18.7526C20.7424 18.6558 20.7568 18.5529 20.75 18.4503C20.7334 18.2574 20.6444 18.078 20.5009 17.9481C20.3574 17.8181 20.1701 17.7474 19.9765 17.75H17.75V15.5C17.75 15.1022 17.908 14.7206 18.1893 14.4393C18.4706 14.158 18.8521 14 19.25 14H20.75C20.8528 14.0002 20.9545 13.9793 21.0489 13.9385C21.1433 13.8978 21.2283 13.838 21.2987 13.763C21.369 13.688 21.4232 13.5994 21.4578 13.5026C21.4924 13.4058 21.5068 13.3029 21.5 13.2003C21.4834 13.0071 21.3941 12.8274 21.2502 12.6974C21.1063 12.5675 20.9185 12.4969 20.7246 12.5H19.25C18.4543 12.5 17.6912 12.816 17.1286 13.3787C16.566 13.9413 16.25 14.7043 16.25 15.5V17.75H14C13.8971 17.7498 13.7954 17.7707 13.701 17.8114C13.6066 17.8522 13.5216 17.9119 13.4513 17.9869C13.3809 18.0619 13.3268 18.1506 13.2921 18.2474C13.2575 18.3442 13.2431 18.4471 13.25 18.5497C13.2665 18.7429 13.3558 18.9226 13.4997 19.0525C13.6436 19.1825 13.8314 19.2531 14.0253 19.25H16.25V26.3075C16.2503 26.3604 16.2394 26.4128 16.218 26.4612C16.1967 26.5096 16.1653 26.5529 16.126 26.5884C16.0866 26.6238 16.0403 26.6505 15.9899 26.6667C15.9395 26.6829 15.8863 26.6883 15.8337 26.6825C13.405 26.3867 11.1758 25.1899 9.5874 23.3289C7.99901 21.4679 7.16716 19.0785 7.25652 16.6334C7.44402 11.5709 11.5446 7.45529 16.6109 7.25841C17.9225 7.20761 19.231 7.42187 20.4579 7.88838C21.6848 8.35489 22.8051 9.06407 23.7516 9.9735C24.6981 10.8829 25.4515 11.9739 25.9667 13.1812C26.4819 14.3885 26.7483 15.6873 26.75 17Z" fill="white" fill-opacity="0.7"/>
</svg>
